<?xml version="1.0" standalone="no"?>
<!DOCTYPE svg PUBLIC "-//W3C//DTD SVG 1.1//EN" "http://www.w3.org/Graphics/SVG/1.1/DTD/svg11.dtd">
<svg viewBox="-6 -6 998.595897154883 780" style="fill-opacity:0.5; stroke:black; stroke-width:1; fill:none" xmlns="http://www.w3.org/2000/svg" version="1.1">
<path d="M 385.122171 286.218586 L 386.862237 292.947904 389.529873 302.911447 379.313805 305.783864 370.379795 310.788622 362.989061 311.51976 360.552855 314.45893 349.828385 321.720707 349.619579 326.209943 336.915764 333.938666 331.746033 340.431426 323.564675 341.635411 322.147887 339.6885 319.468573 335.68505 315.311496 319.26106 314.881218 317.597677 322.567383 315.537341 328.447794 310.732459 334.812809 309.56628 346.330126 312.078635 355.261651 309.536598 366.609934 303.979869 369.624068 303.628446 374.789934 298.884292 375.831191 294.788248 381.353317 292.834109 382.107955 286.56996 Z" />
<path d="M 440.155464 540.438304 L 435.255239 536.313462 435.835773 533.261004 429.349186 531.829402 451.784857 502.420163 446.793694 483.459567 463.247204 480.003011 469.89589 477.11404 475.700529 469.544985 479.370202 468.90674 481.304277 476.392028 485.649643 475.54223 488.773262 486.925191 484.341057 487.791968 486.856311 499.29386 494.911016 529.41064 486.134035 531.127142 441.806533 540.11531 440.763753 540.319306 Z" />
<path d="M 356.443015 200.398036 L 366.508321 198.349444 367.325631 196.918555 369.993906 206.882271 373.457248 220.980005 334.771104 228.549029 329.353022 223.492532 321.120325 224.150289 315.228392 231.737765 303.781544 236.917167 297.813656 238.561801 295.975112 240.987031 292.347458 230.496256 291.549398 219.292753 295.41353 215.517805 295.143823 209.533255 299.016712 205.438858 306.762854 209.960223 309.85124 208.482003 316.025906 211.166127 317.447301 208.187075 Z" />
<path d="M 200.386685 306.411431 L 198.40827 301.238163 203.401971 300.419064 228.581365 295.726635 242.847764 293.330443 245.401618 297.199518 253.116329 298.072219 254.085926 302.172034 257.873935 305.163989 265.214603 303.885746 264.932287 306.324141 263.620027 310.076295 272.002149 317.411744 275.705099 317.957834 276.150792 321.445249 273.402192 326.35236 277.880922 327.779255 279.274409 337.753797 274.661434 342.866999 266.819207 344.322862 262.200097 325.765126 242.795115 328.770058 238.123648 333.656632 230.428875 332.859669 222.439258 321.396367 217.075698 318.315899 209.23133 307.062468 204.596285 308.208498 Z" />
<path d="M 716.806767 690.636284 L 716.076222 688.158128 720.855126 675.549795 714.686063 672.86329 709.616382 673.377137 708.128608 669.37906 704.245198 669.184664 693.960179 662.219412 694.121409 657.18437 697.751288 656.395793 696.610974 652.329817 700.458965 649.910217 699.37718 646.071063 714.379338 642.663847 714.778331 643.856646 727.12594 641.127044 727.457525 642.412432 751.833798 636.777801 750.996922 634.240944 802.685795 622.321072 828.597461 615.912397 883.242026 602.705742 882.09375 598.958906 953.905817 580.818604 955.345972 585.699799 950.238512 595.98785 954.49853 600.477801 952.54025 601.733373 959.890083 614.674094 957.771585 617.787485 961.752915 627.573234 959.546023 629.989114 956.717663 639.911916 940.084246 644.427392 836.740203 670.15412 758.478702 688.373703 740.946957 691.877305 740.489529 690.457678 728.683638 689.269253 728.873401 687.882046 Z" />
<path d="M 467.367356 693.095969 L 472.492606 695.270341 460.857439 696.514038 466.870315 691.525267 Z M 521.010599 605.004675 L 521.79263 604.851748 523.530478 604.511913 533.923568 642.986645 533.104513 650.771617 524.955642 648.552745 520.407246 648.965676 513.520816 652.695193 506.448792 652.172092 499.210946 654.5408 487.158917 652.053128 476.652522 653.075708 463.630546 656.020202 449.183549 660.514521 444.560307 654.985476 434.647298 654.065631 431.732815 651.61765 432.811918 640.604395 428.559623 636.511899 428.330771 627.501921 422.525196 624.110475 422.825866 617.856258 424.587304 619.020741 435.120874 613.862085 440.229856 613.497948 452.975185 618.311817 451.685865 613.321836 448.035041 610.144106 459.478924 605.68139 460.133585 601.502521 465.173943 597.339444 475.884539 599.930593 480.083648 598.870971 497.030073 603.340308 502.919206 602.109116 515.894709 606.402242 Z M 485.909239 692.089814 L 494.325931 690.046332 495.880232 693.237013 500.534737 692.882578 499.908219 696.817517 491.792511 702.852758 485.674644 701.42845 477.92226 695.796679 Z M 522.675906 690.617204 L 511.659497 692.13635 503.512693 683.563365 510.708363 683.506223 521.42914 683.3157 528.570159 684.460751 533.260839 679.651652 537.291647 680.769602 535.061973 684.859139 527.196664 687.270938 Z" />
<path d="M 555.733527 746.182373 L 563.418478 748.730203 560.574959 750.795248 554.229202 750.606516 551.767495 747.434456 Z M 584.687759 669.914111 L 571.419892 667.663159 568.205119 668.291683 560.295768 665.231502 552.972207 657.370793 533.104513 650.771617 533.923568 642.986645 523.530478 604.511913 528.865117 605.374972 537.534859 603.600285 541.760352 608.651575 563.724735 604.277759 564.193299 606.092359 571.994185 604.487872 604.070498 643.171752 605.762913 647.606354 602.828203 648.259418 604.602452 654.425331 594.668886 656.60536 584.371639 667.27551 Z" />
<path d="M 429.349186 531.829402 L 435.835773 533.261004 435.255239 536.313462 440.155464 540.438304 402.248645 547.775344 348.023889 557.672468 336.740945 551.461314 332.524555 543.628646 325.475214 541.434159 318.430167 534.314095 308.606463 528.452916 298.917375 525.583885 292.538969 521.749001 288.836689 511.670996 283.546301 503.572003 284.443365 499.980728 280.634921 499.376038 282.509476 493.210361 287.367372 495.754296 291.544809 487.549101 290.892599 476.556092 288.176718 473.116126 292.341343 466.978707 298.935171 465.290641 300.688513 466.774366 300.775417 466.757353 300.775417 466.757353 300.775417 466.757353 305.629117 471.04978 319.816188 478.598892 319.305633 482.273318 329.531875 483.687193 332.912325 486.520547 335.751638 495.734983 341.148228 494.360969 346.514199 498.870957 361.436703 507.150262 362.696469 511.669604 369.589843 510.082246 371.462792 506.379596 376.324762 507.175622 386.660882 513.254945 391.092807 512.387709 385.492979 503.792903 391.925476 506.426325 397.523464 511.129404 395.091995 515.497274 397.828828 519.727588 413.767307 525.584647 418.422432 528.407072 424.429297 527.629001 Z" />
<path d="M 648.356018 495.762618 L 800.778189 460.594802 807.302519 457.573959 807.302519 457.573959 807.302519 457.573959 807.302519 457.573959 874.136685 488.768402 911.420257 506.273137 914.533731 516.228507 924.734907 524.642324 932.79859 527.596176 945.377775 541.343765 946.97548 547.544393 950.964353 547.084011 971.665724 555.514903 971.028985 560.483535 966.013968 569.006277 954.720817 577.959451 953.905817 580.818604 882.09375 598.958906 883.242026 602.705742 828.597461 615.912397 802.685795 622.321072 750.996922 634.240944 751.833798 636.777801 727.457525 642.412432 727.12594 641.127044 714.778331 643.856646 714.379338 642.663847 699.37718 646.071063 700.458965 649.910217 696.610974 652.329817 697.751288 656.395793 694.121409 657.18437 693.960179 662.219412 693.282778 661.716385 683.024268 657.68462 680.729549 655.512053 682.330612 650.751619 685.121769 650.603395 686.140896 637.220266 685.619084 625.647175 677.109358 602.927052 670.328215 580.18674 673.263271 579.533878 654.523004 515.764228 Z" />
<path d="M 276.164218 363.146823 L 280.238399 361.952042 277.296535 366.817518 281.442475 366.959103 285.643135 375.430755 285.147983 380.929316 289.220009 382.197486 288.118503 385.352234 258.160319 399.79656 249.842208 394.117171 238.169739 394.178601 230.294611 388.094841 226.018628 389.567709 220.16279 389.52295 218.63251 385.374172 220.007189 380.10042 225.348009 379.21337 230.047302 374.082949 237.020353 375.974381 247.721351 371.098709 261.647557 371.628883 273.539805 370.650995 270.597584 369.161677 275.729637 363.231902 276.009947 363.256461 Z" />
<path d="M 800.778189 460.594802 L 648.356018 495.762618 624.940512 500.89391 618.415493 503.201529 616.756239 496.774565 618.65752 496.00589 613.888507 486.374151 610.908443 484.732578 604.455841 474.238433 604.437602 470.985496 600.393108 468.757682 596.170336 461.243098 597.74671 458.155069 591.145734 453.805782 590.460467 450.444897 585.728118 451.210935 581.727499 447.386026 581.583188 443.998832 576.66933 441.940976 576.920512 438.317619 572.538808 436.552904 567.289055 431.780736 566.445505 427.100476 561.933043 419.880762 562.895166 414.768115 554.511422 405.286769 552.800509 401.490875 538.35264 397.166434 533.339703 397.908109 528.572784 389.705555 529.640213 387.828848 523.983526 382.898001 518.021198 382.792753 516.040291 372.298035 561.111801 362.613855 590.364188 356.023237 622.75643 371.139608 683.735171 399.735287 722.778981 418.002834 807.302519 457.573959 807.302519 457.573959 Z" />
<path d="M 373.457248 220.980005 L 374.867281 227.138531 376.244785 232.111862 326.838249 242.016947 321.078983 245.527103 309.636771 258.49042 305.057868 265.503254 302.687073 273.990435 297.858242 275.094429 294.7505 273.31958 288.711306 276.805344 283.769399 275.707297 283.769399 275.707297 279.561121 258.736953 279.684785 254.979155 288.125234 243.476714 295.975112 240.987031 297.813656 238.561801 303.781544 236.917167 315.228392 231.737765 321.120325 224.150289 329.353022 223.492532 334.771104 228.549029 Z" />
<path d="M 693.960179 662.219412 L 704.245198 669.184664 708.128608 669.37906 709.616382 673.377137 714.686063 672.86329 720.855126 675.549795 716.076222 688.158128 716.806767 690.636284 717.721717 693.475515 712.435856 696.33479 712.662828 702.167539 706.492187 698.766671 698.624578 696.570993 694.086934 693.486505 683.945939 689.908417 674.687988 687.98456 660.549773 681.296084 662.813456 671.323136 668.196607 664.949992 667.066802 661.279086 683.024268 657.68462 693.282778 661.716385 Z" />
<path d="M 712.662828 702.167539 L 712.435856 696.33479 717.721717 693.475515 716.806767 690.636284 728.873401 687.882046 728.683638 689.269253 740.489529 690.457678 740.946957 691.877305 758.478702 688.373703 836.740203 670.15412 846.574267 700.160292 844.769101 700.592091 856.873639 739.764143 773.898782 766.924823 770.782399 760.147631 766.8998 756.061447 761.742075 755.877543 765.995738 753.617228 772.106798 760.683146 773.512938 759.058422 769.212015 753.703825 761.868218 752.12026 758.417702 755.017906 756.324183 747.961504 752.788957 743.807489 754.062279 739.190768 749.472259 730.239391 742.593032 721.258624 737.763212 717.039791 721.218306 705.261395 Z" />
<path d="M 382.252147 253.575971 L 383.864176 259.456612 392.893599 263.647932 396.35061 269.247083 391.825042 278.234765 385.122171 286.218586 382.107955 286.56996 381.353317 292.834109 375.831191 294.788248 374.789934 298.884292 369.624068 303.628446 366.609934 303.979869 355.261651 309.536598 346.330126 312.078635 334.812809 309.56628 328.447794 310.732459 322.567383 315.537341 314.881218 317.597677 303.165801 300.905327 301.544671 301.699249 302.433245 292.072343 305.032264 288.703922 304.936521 282.685447 311.771108 276.978769 318.264621 276.661179 320.83987 271.788166 327.194362 270.226866 341.465716 275.616141 348.135515 269.624291 349.509245 263.636074 357.991454 262.532489 369.009996 259.58235 371.318267 255.79444 Z" />
<path d="M 301.992925 413.218695 L 318.794992 390.627194 329.074824 383.769675 333.726971 381.985404 340.126062 382.718914 332.191263 353.451109 349.298537 364.163216 359.280606 370.629921 369.790585 375.960751 384.645941 383.618799 384.645941 383.618799 384.645941 383.618799 342.497847 413.075163 345.274497 417.45664 328.935011 439.718635 323.475046 436.259611 317.719549 437.306751 314.347536 440.508686 307.233961 430.303796 310.866717 427.05079 308.691708 420.406892 305.058863 420.482548 301.906015 413.235708 301.906015 413.235708 301.906015 413.235708 301.906015 413.235708 301.906015 413.235708 Z" />
<path d="M 332.191263 353.451109 L 331.000492 352.73093 323.564675 341.635411 331.746033 340.431426 336.915764 333.938666 349.619579 326.209943 349.828385 321.720707 360.552855 314.45893 362.989061 311.51976 370.379795 310.788622 379.313805 305.783864 389.529873 302.911447 390.937501 308.355375 395.403189 308.673284 384.4957 316.288127 379.501091 326.638574 370.692216 347.664651 370.183424 352.053657 365.041988 355.124957 367.408148 357.918781 360.093438 367.770103 359.280606 370.629921 349.298537 364.163216 Z" />
<path d="M 212.335365 398.443556 L 212.335365 398.443556 211.379351 398.630794 211.188246 399.303718 206.744397 396.599406 197.922189 393.561113 195.975615 395.213382 188.513405 391.432158 184.336472 387.642948 176.841929 385.854065 168.064618 390.751011 171.275306 376.697004 166.641042 369.02549 176.107879 377.02136 181.5362 379.294431 164.025967 364.215393 171.591427 360.985718 186.544795 368.304168 194.29794 369.327576 200.816464 368.050847 207.568552 373.321742 209.481141 376.124658 208.899671 381.640279 214.316927 383.518492 210.912352 385.535705 210.954259 389.578792 216.886548 392.388814 215.374951 397.133321 214.8362 397.87433 213.678154 398.339443 213.5239 398.449091 213.350079 398.483134 213.369646 398.558739 213.195825 398.592781 213.176258 398.517177 213.022005 398.626824 212.935094 398.643846 212.895961 398.492637 Z M 219.077074 394.501792 L 217.1259 394.725045 218.648889 393.55297 218.872765 394.065183 Z" />
<path d="M 212.335365 398.443556 L 212.335365 398.443556 212.895961 398.492637 212.935094 398.643846 Z M 213.195825 398.592781 L 213.128482 398.685408 213.022005 398.626824 213.176258 398.517177 Z M 213.369646 398.558739 L 213.263169 398.500155 213.350079 398.483134 213.5239 398.449091 Z M 215.374951 397.133321 L 215.029587 397.915892 213.678154 398.339443 214.8362 397.87433 Z M 218.648889 393.55297 L 218.987888 393.804327 219.077074 394.501792 218.872765 394.065183 Z M 227.7995 399.625156 L 227.412727 399.542026 227.440942 399.298191 227.566983 399.432381 Z M 224.797616 406.72683 L 224.063209 406.711784 224.189249 406.845973 217.825295 408.01288 215.37227 408.413866 212.966065 402.291876 220.770233 398.221475 226.674614 404.452766 225.145255 406.658749 225.058345 406.675769 Z M 211.188246 399.303718 L 211.379351 398.630794 212.248455 398.460578 211.524963 398.840586 Z" />
<path d="M 213.91048 368.187256 L 230.589413 365.238713 228.564011 363.411096 228.769361 355.029967 226.467725 351.429373 237.545282 349.419056 235.939011 345.68228 230.39507 340.492307 230.428875 332.859669 238.123648 333.656632 242.795115 328.770058 262.200097 325.765126 266.819207 344.322862 274.661434 342.866999 275.476966 353.431269 270.796766 358.637093 267.346577 364.714241 260.938845 367.478077 260.000106 367.026382 258.746401 367.827902 249.917954 369.000435 246.000047 367.622789 246.356036 364.057866 242.068965 365.135619 238.019678 374.189959 226.199 373.327252 223.263068 370.804153 214.540725 368.858202 213.91048 368.187256 Z M 268.68077 364.929649 L 269.662852 363.784141 270.182125 362.967552 270.0323 364.506174 Z" />
<path d="M 214.540725 368.858202 L 214.052012 370.145474 207.568552 373.321742 200.816464 368.050847 194.29794 369.327576 186.544795 368.304168 171.591427 360.985718 164.025967 364.215393 159.380417 364.966585 155.575939 356.973629 151.135538 352.521124 140.14593 348.875096 132.402608 345.069761 124.482124 337.406624 113.006493 330.122362 125.946103 327.189768 125.367362 324.602195 143.504987 321.286951 142.81981 318.640787 146.91125 316.806517 167.32004 313.444057 173.959448 316.5127 180.245432 323.860874 183.926536 323.616495 186.197969 326.74635 186.073109 332.967032 188.866006 335.994741 195.696214 338.390585 197.874288 342.571421 201.829275 343.385589 201.238667 346.043282 206.100156 349.301378 215.178204 359.677481 216.652598 367.491361 213.91048 368.187256 213.91048 368.187256 213.91048 368.187256 213.91048 368.187256 213.91048 368.187256 213.91048 368.187256 Z" />
<path d="M 213.91048 368.187256 L 213.91048 368.187256 213.91048 368.187256 213.91048 368.187256 Z M 230.589413 365.238713 L 213.91048 368.187256 213.91048 368.187256 216.652598 367.491361 215.178204 359.677481 206.100156 349.301378 201.238667 346.043282 201.829275 343.385589 197.874288 342.571421 195.696214 338.390585 188.866006 335.994741 186.073109 332.967032 186.197969 326.74635 198.19222 321.219636 201.389372 311.696343 200.386685 306.411431 204.596285 308.208498 209.23133 307.062468 217.075698 318.315899 222.439258 321.396367 230.428875 332.859669 230.39507 340.492307 235.939011 345.68228 237.545282 349.419056 226.467725 351.429373 228.769361 355.029967 228.564011 363.411096 Z" />
<path d="M 323.564675 341.635411 L 331.000492 352.73093 332.191263 353.451109 340.126062 382.718914 333.726971 381.985404 329.074824 383.769675 318.794992 390.627194 301.906015 413.235708 301.906015 413.235708 301.906015 413.235708 298.494656 409.931766 293.931777 409.236297 288.118503 385.352234 289.220009 382.197486 285.147983 380.929316 285.643135 375.430755 281.442475 366.959103 281.86821 364.016062 280.9902 361.328248 282.315218 352.330878 285.454835 345.758546 296.087281 346.616368 301.556596 343.40102 308.972995 341.711069 316.513274 336.263456 319.468573 335.68505 322.147887 339.6885 Z M 301.992925 413.218695 L 301.906015 413.235708 301.906015 413.235708 301.906015 413.235708 301.906015 413.235708 Z" />
<path d="M 367.325631 196.918555 L 366.508321 198.349444 356.443015 200.398036 357.934292 194.863401 354.129321 179.799695 345.337712 174.7675 343.01878 168.627821 339.660712 167.298877 332.288066 168.105895 319.385976 162.368809 316.340817 159.072163 310.965599 158.773532 304.229673 156.040269 295.426747 156.968583 293.940164 160.754859 288.917262 164.994909 289.875949 168.699824 285.685452 170.15548 283.648745 167.93259 279.301727 168.783392 274.065548 166.551214 269.973791 150.034133 249.609829 153.940766 248.870351 149.319073 240.319808 113.814355 238.804473 111.489412 233.380603 89.83074 283.609508 80.237883 333.848482 70.328246 352.764058 140.268182 Z" />
<path d="M 280.9902 361.328248 L 272.550643 363.298213 268.985316 369.6362 265.282633 369.090144 268.68077 364.929649 270.0323 364.506174 270.182125 362.967552 271.238014 360.695488 270.796766 358.637093 275.476966 353.431269 274.661434 342.866999 279.274409 337.753797 277.880922 327.779255 273.402192 326.35236 276.150792 321.445249 275.705099 317.957834 272.002149 317.411744 263.620027 310.076295 264.932287 306.324141 271.297236 305.157528 274.291755 304.730189 300.762352 301.852372 301.544671 301.699249 301.544671 301.699249 303.165801 300.905327 314.881218 317.597677 315.311496 319.26106 319.468573 335.68505 316.513274 336.263456 308.972995 341.711069 301.556596 343.40102 296.087281 346.616368 285.454835 345.758546 282.315218 352.330878 Z M 275.729637 363.231902 L 276.009947 363.256461 276.164218 363.146823 276.009947 363.256461 Z M 260.938845 367.478077 L 259.837174 367.455465 258.746401 367.827902 260.000106 367.026382 Z" />
<path d="M 301.544671 301.699249 L 300.762352 301.852372 274.291755 304.730189 275.050067 303.072432 271.311271 287.916831 275.570619 287.083032 274.092476 281.017368 281.446181 274.493861 283.769399 275.707297 283.769399 275.707297 288.711306 276.805344 294.7505 273.31958 297.858242 275.094429 302.687073 273.990435 305.057868 265.503254 309.636771 258.49042 321.078983 245.527103 326.838249 242.016947 376.244785 232.111862 377.222477 235.892419 382.252147 253.575971 371.318267 255.79444 369.009996 259.58235 357.991454 262.532489 349.509245 263.636074 348.135515 269.624291 341.465716 275.616141 327.194362 270.226866 320.83987 271.788166 318.264621 276.661179 311.771108 276.978769 304.936521 282.685447 305.032264 288.703922 302.433245 292.072343 Z" />
<path d="M 281.446181 274.493861 L 274.092476 281.017368 264.604657 284.940098 263.088048 288.255642 257.558669 278.534561 258.747132 275.362679 254.219648 267.749133 251.43481 258.046755 267.272984 251.13313 271.093019 242.600369 271.327147 233.975163 283.206423 231.173276 282.560811 228.678171 287.272409 223.942916 288.900176 222.114986 291.549398 219.292753 292.347458 230.496256 295.975112 240.987031 288.125234 243.476714 279.684785 254.979155 279.561121 258.736953 283.769399 275.707297 283.769399 275.707297 Z" />
<path d="M 384.645941 383.618799 L 384.645941 383.618799 384.645941 383.618799 383.183984 379.377131 389.161391 381.305544 390.354475 379.562886 385.915698 375.109287 396.422259 369.479233 397.793758 365.954147 401.835301 366.752154 404.517266 361.938083 419.727333 365.317364 427.521812 364.031016 438.507202 356.719205 443.321919 347.437085 445.803578 346.792861 451.552696 349.957847 455.0363 348.243939 461.913324 350.473505 466.464973 353.95217 449.833183 377.221698 451.385741 382.875451 446.845894 386.861209 447.822992 390.6417 439.063942 392.434313 421.482056 417.320102 412.843592 413.926349 399.512805 401.918753 397.840145 398.274357 Z" />
<path d="M 291.549398 219.292753 L 288.900176 222.114986 287.272409 223.942916 281.960619 222.122801 274.11864 214.760604 255.511371 204.977714 253.248518 201.528143 251.847972 192.58729 254.36855 185.738667 247.578124 181.0305 246.512723 177.267049 251.531104 174.775288 251.106392 165.722782 247.785031 163.830861 240.768872 164.251069 238.951067 157.933904 236.722982 156.384067 246.721197 154.42679 249.609829 153.940766 269.973791 150.034133 274.065548 166.551214 279.301727 168.783392 283.648745 167.93259 285.685452 170.15548 289.875949 168.699824 288.917262 164.994909 293.940164 160.754859 295.426747 156.968583 304.229673 156.040269 310.965599 158.773532 316.340817 159.072163 319.385976 162.368809 332.288066 168.105895 339.660712 167.298877 343.01878 168.627821 345.337712 174.7675 354.129321 179.799695 357.934292 194.863401 356.443015 200.398036 317.447301 208.187075 316.025906 211.166127 309.85124 208.482003 306.762854 209.960223 299.016712 205.438858 295.143823 209.533255 295.41353 215.517805 Z" />
<path d="M 233.380603 89.83074 L 229.033164 90.681792 224.772685 91.515843 211.876541 39.939739 207.545876 24.978211 207.164746 20.683396 249.66978 12.998768 315.285695 0 333.848482 70.328246 283.609508 80.237883 Z" />
<path d="M 224.772685 91.515843 L 229.033164 90.681792 233.380603 89.83074 238.804473 111.489412 240.319808 113.814355 248.870351 149.319073 249.609829 153.940766 246.721197 154.42679 236.722982 156.384067 225.549073 159.445494 213.103472 160.770028 203.471004 165.198213 197.893692 165.178131 189.352422 169.233931 176.097064 174.133582 165.740625 175.764649 159.252538 175.049327 150.944979 182.475785 142.58743 180.537914 133.618237 183.645375 130.800374 187.931184 126.151329 187.968051 119.871019 191.581677 118.765787 187.667168 123.026163 181.192084 122.430081 179.243338 129.184357 175.695781 132.37347 169.668936 142.391544 162.145558 140.30578 156.913656 135.911798 152.292766 140.504625 143.925461 139.677481 139.320874 143.181712 132.040687 141.521961 127.04306 146.37428 121.087708 146.01398 114.405561 150.117576 112.966286 149.66409 107.335152 145.203283 105.984406 173.404134 100.938112 Z" />
<path d="M 51.768883 228.759348 L 72.614408 225.309558 88.639867 222.645867 89.033973 224.872487 136.163299 216.750949 138.403198 221.873102 136.251881 223.088956 139.414348 232.479107 140.376084 236.898322 144.666916 239.712085 147.805698 250.775095 148.439229 255.338017 138.164718 257.986292 135.542084 259.850579 136.459223 268.329992 142.502481 275.090182 146.0922 282.251582 140.836924 288.762509 141.71716 297.80516 143.999036 298.152528 148.220562 303.521853 151.436623 302.891825 156.323627 310.831752 167.32004 313.444057 146.91125 316.806517 142.81981 318.640787 143.504987 321.286951 125.367362 324.602195 125.946103 327.189768 113.006493 330.122362 95.179887 319.475163 95.967713 309.470082 89.881698 298.667083 86.645041 296.044261 79.334623 283.336255 78.136466 274.832429 79.90226 265.429959 75.027724 252.959441 72.421288 251.00751 67.903938 241.326894 Z" />
<path d="M 88.639867 222.645867 L 72.614408 225.309558 51.768883 228.759348 46.619357 226.511442 42.559431 220.713342 36.795213 219.618724 33.451477 216.937471 20.573524 210.246218 20.690864 205.059306 13.76412 194.897603 14.380924 188.8183 20.978307 165.280361 20.572005 170.762298 24.029765 170.005085 25.060433 160.587386 29.087609 159.5597 31.16173 155.578121 25.505963 155.256648 22.234578 165.193006 25.753091 148.455322 25.488308 138.973715 22.449098 137.8216 19.796597 131.111907 21.898904 126.886422 22.464274 117.08315 21.887043 103.928706 20.786082 101.443304 43.413272 97.803156 45.033386 105.112501 53.245179 103.662145 65.321692 101.613462 67.693613 102.658159 72.337976 112.473274 76.27216 118.137475 74.043171 127.869316 79.646283 132.570913 75.841393 142.21428 69.174175 140.104591 64.764759 142.4781 71.529723 150.606405 74.436307 158.299094 Z" />
<path d="M 274.291755 304.730189 L 271.297236 305.157528 264.932287 306.324141 265.214603 303.885746 257.873935 305.163989 254.085926 302.172034 253.116329 298.072219 245.401618 297.199518 242.847764 293.330443 242.7037 287.480216 238.778198 280.781588 235.522823 281.260103 228.884801 272.550549 227.467199 267.426269 229.187619 261.36979 250.765367 257.224551 251.43481 258.046755 254.219648 267.749133 258.747132 275.362679 257.558669 278.534561 263.088048 288.255642 264.604657 284.940098 274.092476 281.017368 275.570619 287.083032 271.311271 287.916831 275.050067 303.072432 Z" />
<path d="M 470.453947 356.667125 L 468.839494 356.42681 466.464973 353.95217 461.913324 350.473505 455.0363 348.243939 451.552696 349.957847 445.803578 346.792861 443.321919 347.437085 438.507202 356.719205 427.521812 364.031016 419.727333 365.317364 404.517266 361.938083 401.835301 366.752154 397.793758 365.954147 396.422259 369.479233 385.915698 375.109287 390.354475 379.562886 389.161391 381.305544 383.183984 379.377131 384.645941 383.618799 369.790585 375.960751 359.280606 370.629921 360.093438 367.770103 367.408148 357.918781 365.041988 355.124957 370.183424 352.053657 370.692216 347.664651 379.501091 326.638574 384.4957 316.288127 395.403189 308.673284 407.728436 313.252466 416.617361 305.953344 420.781107 305.45666 422.010498 309.505635 427.651491 311.897392 427.594429 315.562507 432.48543 319.292473 431.113667 322.817547 436.465459 325.504188 445.542127 326.350293 446.728165 328.819063 451.728671 326.967358 455.935473 328.051052 460.954277 332.629875 462.519657 339.393257 472.32788 342.717785 474.271138 349.883844 Z" />
<path d="M 466.464973 353.95217 L 468.839494 356.42681 470.453947 356.667125 475.260232 357.951356 476.142946 355.713516 482.005805 354.725949 487.880695 358.025378 493.54582 365.814003 477.732742 388.366743 475.354238 394.709776 478.220361 403.681022 475.144567 409.445522 471.153208 409.193472 469.350895 414.232367 465.583908 411.315241 461.498275 415.291521 463.105219 419.743106 459.559267 419.801161 459.339007 423.895222 456.023489 423.43164 451.155174 430.738301 447.372485 442.598505 445.186884 441.913972 434.685643 445.79499 431.815055 448.818882 427.389357 448.652026 420.5102 452.062976 416.753146 455.895797 411.692935 456.806334 396.498063 451.359437 395.857587 447.115996 385.566585 436.976424 389.627914 431.495265 398.138888 427.685382 407.938652 421.796517 417.748945 419.480159 421.482056 417.320102 439.063942 392.434313 447.822992 390.6417 446.845894 386.861209 451.385741 382.875451 449.833183 377.221698 Z" />
<path d="M 427.651491 311.897392 L 422.010498 309.505635 420.781107 305.45666 416.617361 305.953344 407.728436 313.252466 395.403189 308.673284 390.937501 308.355375 389.529873 302.911447 386.862237 292.947904 385.122171 286.218586 391.825042 278.234765 396.35061 269.247083 392.893599 263.647932 399.638974 266.776825 422.817037 277.653605 421.631979 282.254288 422.759067 287.673688 431.150603 295.405664 431.666538 303.407022 427.363397 305.837332 Z" />
<path d="M 333.588629 454.535592 L 342.207221 464.20764 362.212408 469.188868 393.063808 486.107525 397.161903 499.841547 392.395204 501.88628 391.925476 506.426325 385.492979 503.792903 391.092807 512.387709 386.660882 513.254945 376.324762 507.175622 371.462792 506.379596 369.589843 510.082246 362.696469 511.669604 361.436703 507.150262 346.514199 498.870957 341.148228 494.360969 335.751638 495.734983 332.912325 486.520547 329.531875 483.687193 319.305633 482.273318 319.816188 478.598892 303.502132 470.5924 300.775417 466.757353 300.775417 466.757353 300.775417 466.757353 301.514061 465.024078 305.631179 465.409597 311.247293 456.764006 317.404566 457.623989 Z" />
<path d="M 362.212408 469.188868 L 342.207221 464.20764 333.588629 454.535592 329.795257 449.400007 331.724657 445.209564 328.569948 443.602898 328.935011 439.718635 345.274497 417.45664 342.497847 413.075163 384.645941 383.618799 397.840145 398.274357 399.512805 401.918753 412.843592 413.926349 421.482056 417.320102 417.748945 419.480159 407.938652 421.796517 398.138888 427.685382 389.627914 431.495265 385.566585 436.976424 382.28539 441.590066 383.727677 445.756062 378.493619 446.700792 Z" />
<path d="M 440.155464 540.438304 L 440.763753 540.319306 441.806533 540.11531 445.801021 555.219679 454.577604 553.502806 456.44435 561.080495 465.032977 564.642744 465.697172 567.21338 475.236185 565.268125 477.296002 572.887449 483.031097 571.765722 485.071278 579.309444 496.715197 577.032134 498.774748 584.651484 507.848857 582.320903 509.484557 590.420263 516.91158 589.84155 521.010599 605.004675 515.894709 606.402242 502.919206 602.109116 497.030073 603.340308 480.083648 598.870971 475.884539 599.930593 465.173943 597.339444 460.133585 601.502521 459.478924 605.68139 448.035041 610.144106 451.685865 613.321836 452.975185 618.311817 440.229856 613.497948 435.120874 613.862085 424.587304 619.020741 422.825866 617.856258 422.288454 609.065456 419.693479 603.616075 413.872279 601.577961 409.386428 603.647156 401.564642 601.285723 396.59936 597.968205 397.234463 590.536445 400.071516 589.504699 391.381276 580.958897 383.180953 581.37223 373.367156 575.19101 366.025283 568.684909 355.735135 568.077731 348.023889 557.672468 402.248645 547.775344 Z" />
<path d="M 228.971545 254.183127 L 229.495786 257.973005 229.187619 261.36979 227.467199 267.426269 228.884801 272.550549 235.522823 281.260103 238.778198 280.781588 242.7037 287.480216 242.847764 293.330443 228.581365 295.726635 203.401971 300.419064 197.305943 298.038167 195.75346 293.099226 188.99247 291.325229 186.857347 285.547117 187.682231 280.61918 184.011233 278.081131 179.56946 279.26885 170.509118 277.786424 161.697844 272.680473 163.067654 265.977479 209.816876 257.457186 209.257956 254.945126 219.139551 253.248465 219.631079 255.853162 Z" />
<path d="M 229.187619 261.36979 L 229.495786 257.973005 228.971545 254.183127 228.328651 240.407104 217.74277 242.559298 215.870337 234.266994 217.275325 226.286203 208.268024 220.423669 205.550754 216.983732 206.591149 212.887419 225.079764 209.505581 228.743767 206.722755 230.759766 199.337306 235.165247 198.71311 237.217848 187.586816 243.062201 186.522097 247.578124 181.0305 254.36855 185.738667 251.847972 192.58729 253.248518 201.528143 255.511371 204.977714 274.11864 214.760604 281.960619 222.122801 287.272409 223.942916 282.560811 228.678171 283.206423 231.173276 271.327147 233.975163 271.093019 242.600369 267.272984 251.13313 251.43481 258.046755 250.765367 257.224551 Z" />
<path d="M 224.189249 406.845973 L 226.43244 413.39707 229.224846 416.424842 238.241902 417.042096 242.785568 420.839052 248.991022 421.530362 251.520333 423.894767 245.852082 428.102697 248.008419 437.848183 251.899951 440.184125 253.291046 446.266539 246.145253 447.586399 246.712547 449.77893 240.755247 451.104409 244.379948 457.702617 240.369217 457.375954 233.694171 451.692869 231.360138 446.907225 230.605008 437.284524 222.820874 426.258113 217.586427 424.02639 217.498601 417.688681 215.37227 408.413866 217.825295 408.01288 Z M 225.145255 406.658749 L 225.16482 406.734354 224.797616 406.72683 225.058345 406.675769 Z" />
<path d="M 300.775417 466.757353 L 298.935171 465.290641 292.341343 466.978707 288.176718 473.116126 282.766645 467.026289 275.529471 463.756654 267.310756 467.987218 258.196576 466.991668 248.517021 461.340824 244.379948 457.702617 240.755247 451.104409 246.712547 449.77893 246.145253 447.586399 253.291046 446.266539 251.899951 440.184125 256.810579 443.988662 263.630845 446.704377 267.709205 450.115864 282.248806 452.670652 288.410559 454.959396 295.202471 461.096501 305.631179 465.409597 301.514061 465.024078 300.775417 466.757353 Z" />
<path d="M 333.588629 454.535592 L 317.404566 457.623989 311.247293 456.764006 305.631179 465.409597 295.202471 461.096501 288.410559 454.959396 282.248806 452.670652 267.709205 450.115864 263.630845 446.704377 256.810579 443.988662 251.899951 440.184125 248.008419 437.848183 245.852082 428.102697 251.520333 423.894767 254.277651 425.022997 257.575689 422.947374 266.540397 422.304167 270.655342 418.797689 301.906015 413.235708 301.906015 413.235708 301.906015 413.235708 305.058863 420.482548 308.691708 420.406892 310.866717 427.05079 307.233961 430.303796 314.347536 440.508686 317.719549 437.306751 323.475046 436.259611 328.935011 439.718635 328.569948 443.602898 331.724657 445.209564 329.795257 449.400007 Z M 301.906015 413.235708 L 301.992925 413.218695 301.906015 413.235708 301.906015 413.235708 301.906015 413.235708 Z" />
<path d="M 523.530478 604.511913 L 521.79263 604.851748 521.010599 605.004675 516.91158 589.84155 509.484557 590.420263 507.848857 582.320903 498.774748 584.651484 496.715197 577.032134 485.071278 579.309444 483.031097 571.765722 477.296002 572.887449 475.236185 565.268125 465.697172 567.21338 465.032977 564.642744 456.44435 561.080495 454.577604 553.502806 445.801021 555.219679 441.806533 540.11531 486.134035 531.127142 494.911016 529.41064 578.112431 511.872705 618.415493 503.201529 624.940512 500.89391 648.356018 495.762618 654.523004 515.764228 673.263271 579.533878 670.328215 580.18674 603.403373 595.330013 573.541807 601.643721 571.994185 604.487872 564.193299 606.092359 563.724735 604.277759 541.760352 608.651575 537.534859 603.600285 528.865117 605.374972 Z" />
<path d="M 203.401971 300.419064 L 198.40827 301.238163 200.386685 306.411431 201.389372 311.696343 198.19222 321.219636 186.197969 326.74635 183.926536 323.616495 180.245432 323.860874 173.959448 316.5127 167.32004 313.444057 156.323627 310.831752 151.436623 302.891825 148.220562 303.521853 143.999036 298.152528 141.71716 297.80516 140.836924 288.762509 146.0922 282.251582 142.502481 275.090182 136.459223 268.329992 135.542084 259.850579 138.164718 257.986292 148.439229 255.338017 147.805698 250.775095 159.425753 248.737238 163.067654 265.977479 161.697844 272.680473 170.509118 277.786424 179.56946 279.26885 184.011233 278.081131 187.682231 280.61918 186.857347 285.547117 188.99247 291.325229 195.75346 293.099226 197.305943 298.038167 Z" />
<path d="M 163.067654 265.977479 L 159.425753 248.737238 147.805698 250.775095 144.666916 239.712085 140.376084 236.898322 139.414348 232.479107 146.629472 231.065726 208.268024 220.423669 217.275325 226.286203 215.870337 234.266994 217.74277 242.559298 228.328651 240.407104 228.971545 254.183127 219.631079 255.853162 219.139551 253.248465 209.257956 254.945126 209.816876 257.457186 Z" />
<path d="M 139.414348 232.479107 L 136.251881 223.088956 138.403198 221.873102 136.163299 216.750949 134.40899 215.267444 131.596471 206.523669 128.559232 202.908216 129.22328 199.123773 126.470247 193.784339 119.871019 191.581677 126.151329 187.968051 130.800374 187.931184 133.618237 183.645375 142.58743 180.537914 150.944979 182.475785 159.252538 175.049327 165.740625 175.764649 176.097064 174.133582 189.352422 169.233931 197.893692 165.178131 203.471004 165.198213 213.103472 160.770028 225.549073 159.445494 236.722982 156.384067 238.951067 157.933904 240.768872 164.251069 247.785031 163.830861 251.106392 165.722782 251.531104 174.775288 246.512723 177.267049 247.578124 181.0305 243.062201 186.522097 237.217848 187.586816 235.165247 198.71311 230.759766 199.337306 228.743767 206.722755 225.079764 209.505581 206.591149 212.887419 205.550754 216.983732 208.268024 220.423669 146.629472 231.065726 Z" />
<path d="M 76.27216 118.137475 L 72.337976 112.473274 67.693613 102.658159 65.321692 101.613462 53.245179 103.662145 55.46169 95.998201 51.294548 90.141313 44.754109 85.702868 46.997522 74.617385 41.502678 65.048303 43.819639 64.117575 44.97198 59.045489 50.455848 56.938066 52.19365 47.778914 65.005904 45.745113 79.930814 42.344229 87.58493 41.559695 137.352322 32.287885 207.164746 20.683396 207.545876 24.978211 211.876541 39.939739 224.772685 91.515843 173.404134 100.938112 145.203283 105.984406 142.75942 103.603079 142.062262 97.384096 143.867749 93.77326 137.517508 91.12426 135.344678 94.727621 131.190864 95.620677 131.278657 98.781258 121.073453 108.406929 115.430712 109.194513 112.21235 112.287761 110.599099 118.403248 118.082731 124.722762 117.19464 127.995059 113.286118 127.012961 107.965504 128.690845 105.682098 125.165962 101.016859 123.378822 91.133729 125.076787 87.622049 121.395352 Z" />
<path d="M 227.440942 399.298191 L 229.29161 394.805066 226.018628 389.567709 230.294611 388.094841 238.169739 394.178601 249.842208 394.117171 258.160319 399.79656 288.118503 385.352234 293.931777 409.236297 298.494656 409.931766 301.906015 413.235708 301.906015 413.235708 301.906015 413.235708 301.906015 413.235708 301.992925 413.218695 301.906015 413.235708 270.655342 418.797689 266.540397 422.304167 257.575689 422.947374 252.089263 420.447069 246.369963 414.576647 243.236049 407.405601 233.720726 402.040233 237.038376 400.040131 227.7995 399.625156 227.566983 399.432381 Z" />
<path d="M 650.797427 765.164355 L 641.493571 756.340423 638.186302 750.950862 650.327007 758.74383 663.970862 765.290093 657.825841 768 Z M 637.960953 716.129034 L 630.301001 715.799473 626.74908 712.99916 632.357365 711.744156 647.895654 714.66393 654.708457 719.845034 654.244193 723.350867 649.644669 722.502494 642.201267 723.718953 Z M 660.549773 681.296084 L 655.341779 680.566525 651.035002 684.743871 648.144588 683.799715 647.102325 687.895072 636.204112 686.689237 634.111458 684.239032 635.573693 678.234854 628.364476 669.39835 617.965355 663.409167 601.25659 667.628232 597.219526 671.435472 592.654842 669.309706 584.687759 669.914111 584.371639 667.27551 594.668886 656.60536 604.602452 654.425331 602.828203 648.259418 605.762913 647.606354 604.070498 643.171752 571.994185 604.487872 573.541807 601.643721 603.403373 595.330013 670.328215 580.18674 677.109358 602.927052 685.619084 625.647175 686.140896 637.220266 685.121769 650.603395 682.330612 650.751619 680.729549 655.512053 683.024268 657.68462 667.066802 661.279086 668.196607 664.949992 662.813456 671.323136 Z" />
<path d="M 956.717663 639.911916 L 949.839348 644.033246 953.396454 649.692612 951.848938 653.250542 957.290587 654.88915 960.121069 664.105112 959.990971 671.039623 964.364307 674.55435 977.456951 672.238742 985.367407 681.33738 986.595897 686.815607 983.015306 692.755341 984.363643 695.51009 977.82429 699.882775 970.146356 700.189239 969.466262 702.863166 903.401305 724.488628 856.873639 739.764143 844.769101 700.592091 846.574267 700.160292 836.740203 670.15412 940.084246 644.427392 Z" />
<path d="M 475.700529 469.544985 L 482.263922 460.318428 495.213442 457.786093 493.192553 450.317738 518.831396 445.304517 516.936701 437.970315 551.083023 430.897644 566.445505 427.100476 567.289055 431.780736 572.538808 436.552904 576.920512 438.317619 576.66933 441.940976 581.583188 443.998832 581.727499 447.386026 585.728118 451.210935 590.460467 450.444897 591.145734 453.805782 597.74671 458.155069 596.170336 461.243098 600.393108 468.757682 604.437602 470.985496 604.455841 474.238433 610.908443 484.732578 613.888507 486.374151 618.65752 496.00589 616.756239 496.774565 618.415493 503.201529 578.112431 511.872705 494.911016 529.41064 486.856311 499.29386 484.341057 487.791968 488.773262 486.925191 485.649643 475.54223 481.304277 476.392028 479.370202 468.90674 Z" />
<path d="M 566.445505 427.100476 L 551.083023 430.897644 516.936701 437.970315 518.831396 445.304517 493.192553 450.317738 495.213442 457.786093 482.263922 460.318428 475.700529 469.544985 469.89589 477.11404 463.247204 480.003011 446.793694 483.459567 451.784857 502.420163 429.349186 531.829402 424.429297 527.629001 418.422432 528.407072 413.767307 525.584647 397.828828 519.727588 395.091995 515.497274 397.523464 511.129404 391.925476 506.426325 392.395204 501.88628 397.161903 499.841547 393.063808 486.107525 362.212408 469.188868 378.493619 446.700792 383.727677 445.756062 382.28539 441.590066 385.566585 436.976424 395.857587 447.115996 396.498063 451.359437 411.692935 456.806334 416.753146 455.895797 420.5102 452.062976 427.389357 448.652026 431.815055 448.818882 434.685643 445.79499 445.186884 441.913972 447.372485 442.598505 451.155174 430.738301 456.023489 423.43164 459.339007 423.895222 459.559267 419.801161 463.105219 419.743106 461.498275 415.291521 465.583908 411.315241 469.350895 414.232367 471.153208 409.193472 475.144567 409.445522 478.220361 403.681022 475.354238 394.709776 477.732742 388.366743 493.54582 365.814003 502.739122 367.114324 509.76926 372.412036 513.73535 370.44517 516.040291 372.298035 518.021198 382.792753 523.983526 382.898001 529.640213 387.828848 528.572784 389.705555 533.339703 397.908109 538.35264 397.166434 552.800509 401.490875 554.511422 405.286769 562.895166 414.768115 561.933043 419.880762 Z" />
<path d="M 20.786082 101.443304 L 15.670614 89.813872 8.961816 78.735048 0.437309 76.51302 2.37539 69.538963 1.557934 59.688758 0 56.498416 41.798908 49.974737 52.19365 47.778914 50.455848 56.938066 44.97198 59.045489 43.819639 64.117575 41.502678 65.048303 46.997522 74.617385 44.754109 85.702868 51.294548 90.141313 55.46169 95.998201 53.245179 103.662145 45.033386 105.112501 43.413272 97.803156 Z" />
<path d="M 136.163299 216.750949 L 89.033973 224.872487 88.639867 222.645867 74.436307 158.299094 71.529723 150.606405 64.764759 142.4781 69.174175 140.104591 75.841393 142.21428 79.646283 132.570913 74.043171 127.869316 76.27216 118.137475 87.622049 121.395352 91.133729 125.076787 101.016859 123.378822 105.682098 125.165962 107.965504 128.690845 113.286118 127.012961 117.19464 127.995059 118.082731 124.722762 110.599099 118.403248 112.21235 112.287761 115.430712 109.194513 121.073453 108.406929 131.278657 98.781258 131.190864 95.620677 135.344678 94.727621 137.517508 91.12426 143.867749 93.77326 142.062262 97.384096 142.75942 103.603079 145.203283 105.984406 149.66409 107.335152 150.117576 112.966286 146.01398 114.405561 146.37428 121.087708 141.521961 127.04306 143.181712 132.040687 139.677481 139.320874 140.504625 143.925461 135.911798 152.292766 140.30578 156.913656 142.391544 162.145558 132.37347 169.668936 129.184357 175.695781 122.430081 179.243338 123.026163 181.192084 118.765787 187.667168 119.871019 191.581677 126.470247 193.784339 129.22328 199.123773 128.559232 202.908216 131.596471 206.523669 134.40899 215.267444 Z" />
<path d="M 422.817037 277.653605 L 463.219408 296.521506 505.370917 316.160736 590.364188 356.023237 561.111801 362.613855 516.040291 372.298035 513.73535 370.44517 509.76926 372.412036 502.739122 367.114324 493.54582 365.814003 487.880695 358.025378 482.005805 354.725949 476.142946 355.713516 475.260232 357.951356 470.453947 356.667125 474.271138 349.883844 472.32788 342.717785 462.519657 339.393257 460.954277 332.629875 455.935473 328.051052 451.728671 326.967358 446.728165 328.819063 445.542127 326.350293 436.465459 325.504188 431.113667 322.817547 432.48543 319.292473 427.594429 315.562507 427.651491 311.897392 427.363397 305.837332 431.666538 303.407022 431.150603 295.405664 422.759067 287.673688 421.631979 282.254288 Z" />
</svg>
